# xmcd CD database file
#
# Track frame offsets:
#	200
#	14112
#	26200
#	37932
#	53485
#	67302
#	82130
#	95652
#	107395
#	117167
#	133010
#	145150
#	157427
#	168492
#	181607
#	192235
#	203512
#	221402
#
# Disc length: 3125 seconds
#
# Revision: 0
# Processed by: cddbd v1.5PL3 Copyright (c) Steve Scherf et al.
# Submitted via: CDex 1.51
#
DISCID=040c3312
DTITLE=Juan Acereto - Trova Yucateca - Disco 1
DYEAR=1900
DGENRE=Español
TTITLE0=Ave sin rumbo
TTITLE1=Porque eres morena
TTITLE2=Dardo de amor
TTITLE3=Tus ojitos
TTITLE4=Otoño en flor
TTITLE5=Noche tranquila
TTITLE6=Miedo de amar
TTITLE7=Sin agravios
TTITLE8=Anhelos del alma
TTITLE9=A Guty
TTITLE10=Flor de azahar
TTITLE11=Dos dolores
TTITLE12=Gota a gota
TTITLE13=Tu, mi unica pasion
TTITLE14=Flor, mar y cielo
TTITLE15=Del ultimo lucero
TTITLE16=Margarita rosa
TTITLE17=Milagreria
EXTD=
EXTT0=
EXTT1=
EXTT2=
EXTT3=
EXTT4=
EXTT5=
EXTT6=
EXTT7=
EXTT8=
EXTT9=
EXTT10=
EXTT11=
EXTT12=
EXTT13=
EXTT14=
EXTT15=
EXTT16=
EXTT17=
PLAYORDER=
